<svg xmlns="http://www.w3.org/2000/svg" xmlns:xlink="http://www.w3.org/1999/xlink" width="35.999" height="36" viewBox="0 0 35.999 36">
  <defs>
    <filter id="Fill_1" x="0" y="0" width="35.999" height="36" filterUnits="userSpaceOnUse">
      <feOffset dy="3" input="SourceAlpha"/>
      <feGaussianBlur stdDeviation="3" result="blur"/>
      <feFlood flood-opacity="0.161"/>
      <feComposite operator="in" in2="blur"/>
      <feComposite in="SourceGraphic"/>
    </filter>
  </defs>
  <g transform="matrix(1, 0, 0, 1, 0, 0)" filter="url(#Fill_1)">
    <path id="Fill_1-2" data-name="Fill 1" d="M10.025,18a.326.326,0,0,1-.044,0,.438.438,0,0,1-.153-.051.414.414,0,0,1-.122-.109.375.375,0,0,1-.07-.14L9.1,15.69H8.99a6.619,6.619,0,0,1-1.821-.257l-1.035,1.8a.453.453,0,0,1-.109.122.4.4,0,0,1-.14.07.5.5,0,0,1-.116.015.326.326,0,0,1-.044,0,.438.438,0,0,1-.153-.051L3.449,16.157a.382.382,0,0,1-.115-.1.415.415,0,0,1-.083-.3A.421.421,0,0,1,3.3,15.6l1.042-1.8a6.609,6.609,0,0,1-1.189-1.54l-2.007.536a.464.464,0,0,1-.117.016.323.323,0,0,1-.043,0,.4.4,0,0,1-.147-.051.438.438,0,0,1-.122-.109.388.388,0,0,1-.07-.14L.016,10.143A.389.389,0,0,1,0,9.983a.437.437,0,0,1,.05-.153.382.382,0,0,1,.1-.115A.411.411,0,0,1,.3,9.644L2.311,9.1a6.64,6.64,0,0,1,.256-1.93L.764,6.129a.393.393,0,0,1-.122-.1.375.375,0,0,1-.07-.14.408.408,0,0,1-.006-.159.425.425,0,0,1,.05-.154L1.838,3.458a.414.414,0,0,1,.109-.122.375.375,0,0,1,.14-.07A.392.392,0,0,1,2.2,3.25a.373.373,0,0,1,.05,0,.413.413,0,0,1,.147.05L4.2,4.346A6.662,6.662,0,0,1,5.743,3.157L5.207,1.15A.38.38,0,0,1,5.194.991a.425.425,0,0,1,.05-.154A.449.449,0,0,1,5.353.722a.4.4,0,0,1,.14-.07L7.859.019l.009,0A.415.415,0,0,1,7.968,0a.426.426,0,0,1,.249.089.41.41,0,0,1,.14.218l.537,2.007H9a6.651,6.651,0,0,1,1.827.257l1.035-1.8a.453.453,0,0,1,.109-.122.4.4,0,0,1,.14-.07.37.37,0,0,1,.092-.011.508.508,0,0,1,.068,0,.422.422,0,0,1,.153.051l2.116,1.22a.4.4,0,0,1,.122.1.4.4,0,0,1,.076.307.413.413,0,0,1-.05.147L13.657,4.2a6.674,6.674,0,0,1,1.183,1.547l2.007-.537a.422.422,0,0,1,.112-.016.346.346,0,0,1,.047,0,.447.447,0,0,1,.154.051.438.438,0,0,1,.122.109.388.388,0,0,1,.07.14l.633,2.364a.389.389,0,0,1,.013.16.409.409,0,0,1-.05.147.427.427,0,0,1-.109.122.419.419,0,0,1-.14.07l-2.014.55a6.558,6.558,0,0,1-.249,1.917l1.8,1.042a.394.394,0,0,1,.115.108.4.4,0,0,1,.07.141.38.38,0,0,1,.013.159.44.44,0,0,1-.05.154l-1.221,2.115a.428.428,0,0,1-.109.122.375.375,0,0,1-.14.07.5.5,0,0,1-.116.015.326.326,0,0,1-.044,0,.421.421,0,0,1-.153-.05l-1.8-1.042a6.627,6.627,0,0,1-1.547,1.189l.544,2.007a.411.411,0,0,1,.006.159.376.376,0,0,1-.051.148.4.4,0,0,1-.1.121.383.383,0,0,1-.141.071l-2.364.633A.5.5,0,0,1,10.025,18ZM9,4.87A4.152,4.152,0,0,0,5.417,6.934a4.132,4.132,0,0,0,3.577,6.2A4.13,4.13,0,1,0,9.01,4.87Z" transform="translate(9 6)" fill="#556791"/>
  </g>
</svg>
